<?xml version="1.0" encoding="UTF-8" standalone="no"?>
<!-- Created with Inkscape (http://www.inkscape.org/) -->

<svg
   version="1.1"
   id="svg2"
   width="210.33333"
   height="210"
   viewBox="0 0 210.33333 210"
   sodipodi:docname="RVWaarloos_logo.ai"
   xmlns:inkscape="http://www.inkscape.org/namespaces/inkscape"
   xmlns:sodipodi="http://sodipodi.sourceforge.net/DTD/sodipodi-0.dtd"
   xmlns="http://www.w3.org/2000/svg"
   xmlns:svg="http://www.w3.org/2000/svg">
  <defs
     id="defs6">
    <clipPath
       clipPathUnits="userSpaceOnUse"
       id="clipPath16">
      <path
         d="M 0,0 H 157.75 V 157.5 H 0 Z"
         id="path14" />
    </clipPath>
  </defs>
  <sodipodi:namedview
     id="namedview4"
     pagecolor="#ffffff"
     bordercolor="#000000"
     borderopacity="0.25"
     inkscape:showpageshadow="2"
     inkscape:pageopacity="0.0"
     inkscape:pagecheckerboard="0"
     inkscape:deskcolor="#d1d1d1" />
  <g
     id="g8"
     inkscape:groupmode="layer"
     inkscape:label="RVWaarloos_logo"
     transform="matrix(1.3333333,0,0,-1.3333333,0,210)">
    <g
       id="g10">
      <g
         id="g12"
         clip-path="url(#clipPath16)">
        <g
           id="g18"
           transform="translate(148.0527,78.7539)">
          <path
             d="m 0,0 c 0,-37.982 -30.792,-68.773 -68.774,-68.773 -37.983,0 -68.774,30.791 -68.774,68.773 0,37.983 30.791,68.774 68.774,68.774 C -30.792,68.774 0,37.983 0,0"
             style="fill:#404041;fill-opacity:1;fill-rule:nonzero;stroke:none"
             id="path20" />
        </g>
        <g
           id="g22"
           transform="translate(79.2783,155.208)">
          <path
             d="m 0,0 c -42.157,0 -76.454,-34.297 -76.454,-76.454 0,-42.156 34.297,-76.454 76.454,-76.454 42.157,0 76.454,34.298 76.454,76.454 C 76.454,-34.297 42.157,0 0,0 m 0,-7.68 c 37.983,0 68.774,-30.791 68.774,-68.774 0,-37.983 -30.791,-68.774 -68.774,-68.774 -37.983,0 -68.774,30.791 -68.774,68.774 0,37.983 30.791,68.774 68.774,68.774"
             style="fill:#aace38;fill-opacity:1;fill-rule:nonzero;stroke:none"
             id="path24" />
        </g>
        <g
           id="g26"
           transform="translate(71.2319,102.2231)">
          <path
             d="M 0,0 C 0,4.752 -3.715,7.689 -8.553,7.689 H -21.512 V -7.862 H -8.553 C -3.715,-7.862 0,-4.924 0,0 m -1.21,-42.658 -11.317,23.997 h -8.985 v -17.4 H -33.78 v 54.549 h 26.955 c 12.009,0 19.439,-7.861 19.439,-18.574 0,-10.109 -6.48,-15.638 -12.7,-17.106 l 13.045,-25.466 z"
             style="fill:#ffffff;fill-opacity:1;fill-rule:nonzero;stroke:none"
             id="path28" />
        </g>
        <g
           id="g30"
           transform="translate(44.5962,38.5742)">
          <path
             d="M 0,0 -1.574,6.512 -3.147,0 h -2.835 l -2.976,10.391 h 3.007 l 1.573,-6.932 1.776,6.932 h 2.057 L 1.231,3.459 2.789,10.391 H 5.811 L 2.835,0 Z"
             style="fill:#ffffff;fill-opacity:1;fill-rule:nonzero;stroke:none"
             id="path32" />
        </g>
        <g
           id="g34"
           transform="translate(55.0967,46.3164)">
          <path
             d="m 0,0 -1.324,-3.91 h 2.633 z m 2.555,-7.743 -0.514,1.496 h -4.097 l -0.515,-1.496 h -3.037 l 3.91,10.391 h 3.38 L 5.593,-7.743 Z"
             style="fill:#ffffff;fill-opacity:1;fill-rule:nonzero;stroke:none"
             id="path36" />
        </g>
        <g
           id="g38"
           transform="translate(65.9551,46.3164)">
          <path
             d="m 0,0 -1.324,-3.91 h 2.633 z m 2.555,-7.743 -0.514,1.496 h -4.097 l -0.515,-1.496 h -3.037 l 3.91,10.391 h 3.38 L 5.593,-7.743 Z"
             style="fill:#ffffff;fill-opacity:1;fill-rule:nonzero;stroke:none"
             id="path40" />
        </g>
        <g
           id="g42"
           transform="translate(78.4028,45.5225)">
          <path
             d="m 0,0 c 0,0.716 -0.577,1.105 -1.293,1.105 h -2.119 v -2.227 h 2.119 C -0.577,-1.122 0,-0.732 0,0 m -0.296,-6.948 -1.745,3.489 h -1.371 v -3.489 h -2.68 V 3.443 h 5.204 c 2.306,0 3.614,-1.527 3.614,-3.459 0,-1.807 -1.09,-2.773 -2.072,-3.116 l 2.119,-3.816 z"
             style="fill:#ffffff;fill-opacity:1;fill-rule:nonzero;stroke:none"
             id="path44" />
        </g>
        <g
           id="g46"
           transform="translate(82.5625,38.5742)">
          <path
             d="M 0,0 V 10.391 H 2.68 V 2.337 H 6.855 V 0 Z"
             style="fill:#ffffff;fill-opacity:1;fill-rule:nonzero;stroke:none"
             id="path48" />
        </g>
        <g
           id="g50"
           transform="translate(98.2661,43.7617)">
          <path
             d="m 0,0 c 0,1.698 -1.106,3.007 -2.82,3.007 -1.714,0 -2.835,-1.309 -2.835,-3.007 0,-1.682 1.121,-3.007 2.835,-3.007 C -1.106,-3.007 0,-1.682 0,0 m -8.382,0 c 0,3.163 2.384,5.375 5.562,5.375 3.178,0 5.546,-2.212 5.546,-5.375 0,-3.163 -2.368,-5.375 -5.546,-5.375 -3.178,0 -5.562,2.212 -5.562,5.375"
             style="fill:#ffffff;fill-opacity:1;fill-rule:nonzero;stroke:none"
             id="path52" />
        </g>
        <g
           id="g54"
           transform="translate(110.1997,43.7617)">
          <path
             d="m 0,0 c 0,1.698 -1.106,3.007 -2.82,3.007 -1.713,0 -2.835,-1.309 -2.835,-3.007 0,-1.682 1.122,-3.007 2.835,-3.007 C -1.106,-3.007 0,-1.682 0,0 m -8.382,0 c 0,3.163 2.384,5.375 5.562,5.375 3.178,0 5.546,-2.212 5.546,-5.375 0,-3.163 -2.368,-5.375 -5.546,-5.375 -3.178,0 -5.562,2.212 -5.562,5.375"
             style="fill:#ffffff;fill-opacity:1;fill-rule:nonzero;stroke:none"
             id="path56" />
        </g>
        <g
           id="g58"
           transform="translate(113.5337,40.0381)">
          <path
             d="m 0,0 1.418,2.087 c 0.747,-0.747 1.9,-1.369 3.333,-1.369 0.904,0 1.465,0.31 1.465,0.824 0,1.371 -5.873,0.234 -5.873,4.238 0,1.745 1.464,3.303 4.128,3.303 1.667,0 3.116,-0.499 4.222,-1.448 L 7.229,5.624 C 6.356,6.356 5.219,6.715 4.191,6.715 3.412,6.715 3.069,6.45 3.069,5.998 3.069,4.721 8.942,5.687 8.942,1.823 8.942,-0.265 7.4,-1.65 4.611,-1.65 2.508,-1.65 1.044,-0.981 0,0"
             style="fill:#ffffff;fill-opacity:1;fill-rule:nonzero;stroke:none"
             id="path60" />
        </g>
        <g
           id="g62"
           transform="translate(102.9736,54.0986)">
          <path
             d="M 0,0 H -49.311 L 0,49.311 Z"
             style="fill:#404041;fill-opacity:1;fill-rule:nonzero;stroke:none"
             id="path64" />
        </g>
        <g
           id="g66"
           transform="translate(91.2334,91.8906)">
          <path
             d="m 0,0 8.642,-17.566 15.215,41.001 h 13.32 L 16.971,-30.957 H 0.953 l -9.822,20.927 z"
             style="fill:#ffffff;fill-opacity:1;fill-rule:nonzero;stroke:none"
             id="path68" />
        </g>
        <g
           id="g70"
           transform="translate(85.6436,60.834)">
          <path
             d="m 0,0 c 0,-4.029 -3.266,-7.294 -7.294,-7.294 -4.029,0 -7.295,3.265 -7.295,7.294 0,4.029 3.266,7.294 7.295,7.294 C -3.266,7.294 0,4.029 0,0"
             style="fill:#aace38;fill-opacity:1;fill-rule:nonzero;stroke:none"
             id="path72" />
        </g>
      </g>
    </g>
  </g>
</svg>
